<svg xmlns="http://www.w3.org/2000/svg" id="Layer_1" data-name="Layer 1" viewBox="0 0 116.24 48.18"><defs><style>.cls-4{fill-rule:evenodd}.cls-2,.cls-4{fill:#231f20}</style></defs><path d="M59.18 2.13C91 2.13 117 12.77 117 25.8S91 49.47 59.18 49.47 1.36 38.84 1.36 25.8s26-23.67 57.82-23.67" style="fill-rule:evenodd;fill:#ffeebc" transform="translate(-1.06 -1.74)"/><path d="M98.83 7.7C88.4 3.43 74 .78 58.12.78S27.84 3.43 17.41 7.7.68 17.73.68 24.06s6.4 12.13 16.73 16.37 24.89 6.92 40.71 6.92 30.28-2.65 40.71-6.92 16.73-10 16.73-16.37-6.41-12.13-16.73-16.36M58.12 0c15.95 0 30.43 2.67 40.94 7s17.18 10.39 17.18 17.09-6.57 12.75-17.18 17.09-25 7-40.94 7-30.43-2.66-40.94-7S0 30.76 0 24.06 6.57 11.32 17.18 6.97 42.17 0 58.12 0z" class="cls-2"/><path d="M12.8 16.32" style="fill:none;stroke:#231f20;stroke-miterlimit:22.93;stroke-width:21.78px" transform="translate(-1.06 -1.74)"/><path d="M22 13.34h10.35s7.59-.08 6.91 6.37c-1.16 4.25-5.58 9.3-14.43 14h-4.59l3.58-13.73h3.91l-2.25 8.69s3.12-1.59 8.42-6.77c0 0 3.12-3.72-1.59-4.51l-11.75-.2zm19.4 8.08h3.72l-1.82 6.63s-.34 2.19 1.92 1c0 0 .93-.07 2.86-7.63h3.71l-1.85 6.36s-1.13 2.74 1.46 2.53l-.71 2.95s-4.18.73-4.71-1.13c0 0-4.51 2.32-6.43.93 0 0-1.13-.93-.4-3.65zm13.14-.8 2.76-.1s-.38 1.31.75 1.08h4.32l-.85 3.57s-1.8-.59-2.33 1a15.14 15.14 0 0 0-.74 3.51c.06.31.59.64 2 .58l-1.07 3s-4.24.31-4.56-1a4 4 0 0 1-.32-2.18l.64-3.29h-2.2zm10.23.8h4.4l-2 7.23s-.47 1 1.63.74l-.86 3.77h-3.4s-2.76-.16-2.07-3.51zm16.43-.16s-7.73.13-9.85 5.88c-.53 2-.53 5.19 2.15 5.75 1.34.27 4.48-.26 4.9-1l-.19 1.18h3.87l2-6.68h-3.14s-2.15 3.7-4.89 2.87c-.78-.24-1.06-2.52 1.82-3.64a16.21 16.21 0 0 1 6.86-1l.83-3.36zm6.38.09-3.35 11.91H88s1.55-5.56 1.86-6.09 2.13-2.71 2.44-.62c0 2-1 4.81-1.33 6.66h3.89l1.77-7.24s1.1-4-1.63-4.48c-1.24-.39-2.65.5-3.23.9 0 0-.62-.35-.36-.9zm-20.89-6.09A2.56 2.56 0 0 1 69.5 13a2.72 2.72 0 0 1 .58.13c1.6.38 1.57 3 .85 3.77a2.45 2.45 0 0 1-4.24-1.64z" class="cls-4"/><path d="M95.54 10.52C86 7.07 72.82 4.92 58.3 4.92s-27.7 2.16-37.24 5.6S5.8 18.6 5.8 23.69c0 10.33 23.58 18.76 52.5 18.76 14.52 0 27.7-2.14 37.24-5.6s15.26-8.07 15.26-13.16-5.86-9.75-15.26-13.17M58.3 4.16c14.61 0 27.88 2.16 37.5 5.64s15.78 8.46 15.78 13.89-6 10.37-15.78 13.89-22.86 5.68-37.5 5.68c-29.36 0-53.28-8.81-53.28-19.57 0-5.45 6-10.36 15.78-13.89s22.89-5.64 37.5-5.64zm56.74 5.96a3.51 3.51 0 0 1-5 0 3.51 3.51 0 0 1 0-5 3.52 3.52 0 0 1 5 0 3.54 3.54 0 0 1 0 5zm-2.49.62a3.13 3.13 0 0 0 2.21-.91 3.13 3.13 0 0 0 0-4.42 3.14 3.14 0 0 0-4.42 0 3.12 3.12 0 0 0 2.21 5.33z" class="cls-2"/><path d="M111.94 7.46h.51a1.94 1.94 0 0 0 .59 0 .29.29 0 0 0 .21-.16.54.54 0 0 0 .08-.33.53.53 0 0 0-.08-.32.42.42 0 0 0-.21-.16h-1.1zm-.68 2.39V5.71h1.44a1.92 1.92 0 0 1 .79.11.78.78 0 0 1 .39.39 1.18 1.18 0 0 1 .16.66 1.15 1.15 0 0 1-.24.78 1 1 0 0 1-.66.37 1.67 1.67 0 0 1 .36.34 4.32 4.32 0 0 1 .4.68l.41.81h-.82l-.5-.9a4.33 4.33 0 0 0-.36-.62.53.53 0 0 0-.2-.16 1 1 0 0 0-.35 0h-.14V9.9z" class="cls-4"/></svg>