<svg width="225" height="44" viewBox="0 0 225 44" fill="none" xmlns="http://www.w3.org/2000/svg">
<g clip-path="url(#clip0_3_75)">
<path d="M0.0811728 43.9908C10.9538 44.12 19.8718 43.2802 26.6908 31.339C28.2672 28.5705 29.8256 25.5437 31.0417 23.0705C30.9696 23.2551 30.8976 23.4489 30.8525 23.6519C29.4383 30.1024 41.2207 30.5915 41.0406 32.1233C40.8784 33.4799 33.8612 33.0277 29.2311 31.4312C29.204 31.4312 29.195 31.4128 29.168 31.4035C28.2762 31.099 27.9069 30.5638 27.9069 30.5638L27.9429 30.9329C27.9429 30.9329 27.9519 30.9606 27.9519 30.9883L28.1321 32.714C28.3032 34.5319 28.5375 37.0881 28.5375 37.0881C28.5375 37.0881 53.0753 40.4103 53.5707 32.2341C53.949 26.0512 42.1305 25.2391 42.2656 23.8826C42.3918 22.6091 48.1479 22.4891 51.643 23.0428C51.643 23.0428 51.652 23.0428 51.67 23.0428C53.2284 23.3012 53.4536 24.1687 53.4536 24.1687L53.7148 23.5688C53.7148 23.5688 55.8497 18.6133 56.0299 18.1888L54.3634 35.5193C54.2103 36.5898 53.3995 37.1527 53.3995 37.1527H55.057L62.6688 37.2081L69.7671 27.4354L68.9744 35.6116C68.8302 36.6636 68.0105 37.2358 68.0105 37.2358H68.8212L77.2798 37.2911L91.035 18.3549L85.2608 18.318H84.5312C84.5312 18.318 84.8555 18.8163 84.3961 19.5084L78.1806 28.0722L78.9733 19.8868C79.1264 18.844 79.9371 18.2811 79.9371 18.2811L77.3068 18.2626L70.6589 18.2257L63.5786 27.9799L64.3623 19.8499C64.3623 19.8499 64.3623 19.8406 64.3623 19.8314C64.5064 18.7702 65.3261 18.198 65.3261 18.198H64.5154L56.0569 18.1426C55.6155 18.1242 34.4197 16.9891 31.2218 22.766C32.537 20.0898 33.4288 18.1334 33.4828 18.0411L18.0972 17.9489C18.2683 18.0042 19.1061 18.4841 18.8178 19.2962C17.9981 22.0923 16.0073 28.5705 13.8004 33.3692C10.9178 39.6535 4.46807 41.9237 0.0361328 43.5109" fill="#17479E"/>
<path d="M52.3277 5.14933L44.815 10.3263C60.9933 10.8985 72.0191 5.67534 72.0191 5.67534C60.2637 11.4522 47.8867 11.9136 42.6801 11.8029L33.7441 17.9673C33.7441 17.9673 61.5969 17.4228 79.4147 0C79.4147 0 68.4159 8.25923 52.3277 5.14933Z" fill="#D71920"/>
<path d="M148.011 27.7215V18.2995C149.218 18.2995 150.326 18.2718 151.434 18.3364C151.587 18.3364 151.839 18.8163 151.839 19.0654C151.866 21.677 151.857 24.2793 151.857 26.8909V37.771H148.722C147.587 33.526 145.615 29.6686 142.894 26.2173C142.3 25.4698 141.633 24.7869 140.804 24.1409V37.7802H136.985V18.3272C138.291 18.3733 139.543 18.0319 140.732 19.13C143.281 21.4924 145.533 24.0856 147.362 27.0755C147.506 27.3154 147.65 27.5554 147.794 27.7861C147.867 27.7676 147.939 27.7491 148.002 27.7307" fill="#17479E"/>
<path d="M125.725 37.7894H121.707C121.581 36.4513 121.464 35.1225 121.338 33.7567H113.997C113.87 35.0671 113.735 36.3867 113.6 37.771H109.538C109.673 36.479 109.763 35.2148 109.943 33.9505C110.583 29.4471 111.763 25.1191 113.943 21.1141C113.952 21.0864 113.97 21.0587 113.979 21.0403C115.528 18.281 116.005 18.0134 119.086 18.3179C119.338 18.3456 119.636 18.5579 119.807 18.7794C121.32 20.6896 122.356 22.8674 123.212 25.1468C124.653 29.0042 125.401 33 125.716 37.1065C125.725 37.3003 125.716 37.5033 125.716 37.7986M120.852 30.3976C120.23 27.3247 119.32 24.4362 117.672 21.6862C116.05 24.5008 115.078 27.3339 114.537 30.3976H120.852Z" fill="#17479E"/>
<path d="M98.7729 32.031V37.7709H94.8994V18.2902C97.1154 18.2902 99.3133 18.2717 101.52 18.2994C102.268 18.3087 103.034 18.3917 103.763 18.5578C107.276 19.333 108.943 21.6308 108.862 25.5251C108.79 29.0041 106.907 31.2466 103.511 31.8372C102.691 31.9848 101.845 31.9941 101.007 32.031C100.313 32.0587 99.6196 32.031 98.7729 32.031ZM98.7729 28.7457C99.9529 28.7457 101.016 28.8103 102.07 28.7273C103.484 28.6165 104.439 27.8783 104.664 26.5771C104.826 25.6451 104.808 24.63 104.646 23.6979C104.43 22.4706 103.529 21.7969 102.34 21.677C101.34 21.5754 100.331 21.5847 99.3223 21.6124C99.1332 21.6124 98.7999 21.9538 98.7999 22.1384C98.7638 24.307 98.7729 26.4848 98.7729 28.7457Z" fill="#17479E"/>
<path d="M182.619 22.7013C180.935 21.8431 179.223 21.4094 177.395 21.5017C176.125 21.5755 175.413 22.0461 175.161 22.9505C174.881 23.9564 175.269 24.8423 176.332 25.3129C177.142 25.6728 178.034 25.8482 178.872 26.1527C179.845 26.5034 180.836 26.8263 181.746 27.3154C185.439 29.2903 185.015 34.5042 182.223 36.5621C180.295 37.9832 178.115 38.3062 175.836 38.0847C174.782 37.9832 173.728 37.771 172.719 37.4572C170.9 36.8943 170.486 35.9807 171.071 34.1258C171.197 33.729 171.395 33.3599 171.584 32.9262C173.494 34.0797 175.44 34.7164 177.566 34.5872C177.98 34.5596 178.404 34.495 178.8 34.3842C179.566 34.172 180.061 33.646 180.205 32.8431C180.358 32.0126 180.133 31.2282 179.403 30.8221C178.584 30.37 177.674 30.0747 176.791 29.7332C175.8 29.3549 174.755 29.0965 173.809 28.6258C171.909 27.6846 170.918 26.0789 170.954 23.8733C170.99 21.5755 171.927 19.8221 173.963 18.8163C176.26 17.672 178.683 17.8473 181.106 18.318C181.133 18.318 181.16 18.3456 181.187 18.3456C183.565 18.604 184.061 20.2097 182.592 22.6921" fill="#17479E"/>
<path d="M164.018 21.7139V37.7618H160.135V21.7601H154.28V18.3364H169.864V21.7139H164.018Z" fill="#17479E"/>
<path d="M129.004 18.2994C130.184 18.2994 131.292 18.2994 132.4 18.2994C132.976 18.2994 132.904 18.7055 132.904 19.0746C132.904 21.6493 132.904 24.2239 132.904 26.8078V37.7709H128.995V18.3087L129.004 18.2994Z" fill="#17479E"/>
<path d="M222.597 22.0738C221.3 18.8624 219.633 16.703 219.633 16.703L208.418 0L197.059 16.6107C197.059 16.6107 195.375 18.7517 194.051 21.9539C193.078 23.9471 192.528 26.1711 192.519 28.5151C192.483 37.0327 199.518 43.9631 208.238 44C216.958 44.0369 224.047 37.1711 224.083 28.6535C224.092 26.3003 223.561 24.0763 222.606 22.0738" fill="#17479E"/>
<path d="M208.238 41.2223C201.113 41.1946 195.339 35.5008 195.375 28.5336C195.375 26.651 195.807 24.8423 196.636 23.1535L196.672 23.0705L196.708 22.9874C197.852 20.219 199.32 18.318 199.329 18.2995L199.392 18.2257L206.409 7.97316C206.409 7.97316 207.815 5.54614 208.4 5.54614C208.959 5.54614 210.094 7.56712 210.094 7.56712L217.3 18.3087L217.354 18.3826C217.354 18.3826 218.814 20.3112 219.94 23.0982L219.976 23.1812L220.012 23.2643C220.822 24.9622 221.228 26.771 221.219 28.6628C221.192 35.63 215.372 41.2685 208.247 41.2408" fill="#862990"/>
<path d="M218.696 28.5059C218.669 34.089 213.994 38.6015 208.256 38.5739C202.518 38.5462 197.879 33.9967 197.906 28.4136C197.933 22.8213 202.626 14.2668 208.364 14.2945C214.102 14.3222 218.723 22.9229 218.696 28.5059Z" fill="#D71920"/>
<path d="M215.832 28.4967C215.814 32.5479 212.427 35.8146 208.265 35.7962C204.103 35.7777 200.743 32.4833 200.761 28.4321C200.779 24.3809 204.175 19.7115 208.328 19.7299C212.49 19.7484 215.841 24.4455 215.823 28.4967" fill="#EC5E2D"/>
<path d="M213.417 28.4874C213.408 31.2374 211.102 33.4614 208.274 33.4521C205.445 33.4429 203.157 31.2005 203.175 28.4412C203.184 25.6912 205.49 23.4672 208.319 23.4765C211.147 23.4857 213.436 25.7281 213.417 28.4874Z" fill="#FBB040"/>
<path d="M211.175 28.4782C211.175 30.0285 209.869 31.2743 208.283 31.2743C206.689 31.2743 205.41 30.0008 205.41 28.4597C205.41 26.9094 206.716 25.6636 208.301 25.6636C209.887 25.6636 211.175 26.9278 211.175 28.4782Z" fill="#FFF200"/>
</g>
<defs>
<clipPath id="clip0_3_75">
<rect width="224.074" height="44" fill="white"/>
</clipPath>
</defs>
</svg>
